# xmcd
#
# Track frame offsets: 
#        150
#        13335
#        26216
#        41775
#        54656
#        67226
#        82476
#        97826
#        112674
#        125651
#        138181
#        151489
#        163894
#        178617
#        190607
#        204505
#        218873
#        231813
#        245239
#        259335
#        273599
#        287362
#        301080
#        315556
#        328371
#
# Disc length: 4541 seconds
#
# Revision: 4
# Processed by: cddbd v1.5.2PL0 Copyright (c) Steve Scherf et al.
# Submitted via: ExactAudioCopyFreeDBPlugin 1.0
#
DISCID=7d11bb19
DTITLE=The Carter Family - In The Shadow Of Clinch Mountain - Vol. 01
DYEAR=2000
DGENRE=Bluegrass
TTITLE0=Bury Me Under The Weeping Willow
TTITLE1=Little Log Cabin By The Sea
TTITLE2=The Poor Orphan Child
TTITLE3=The Storms Are On The Ocean
TTITLE4=Single Girl, Married Girl
TTITLE5=The Wandering Boy
TTITLE6=Meet Me By The Moonlight, Alone
TTITLE7=Little Darling Pal Of Mine
TTITLE8=Keep On The Sunny Side
TTITLE9=Anchored In Love
TTITLE10=John Hardy Was A Desperate Little Man
TTITLE11=I Ain't Goin' To Work Tomorrow
TTITLE12=Will You Miss Me When I'm Gone
TTITLE13=River Of Jordan
TTITLE14=Chewing Gum
TTITLE15=Wildwood Flower
TTITLE16=I Have No One To Love Me (But The Sailor On The Deep Blue Sea
TTITLE16=)
TTITLE17=Forsaken Love
TTITLE18=Sweet Fern
TTITLE19=My Clinch Mountain Home
TTITLE20=God Gave Noah The Rainbow Sign
TTITLE21=I'm Thinking Tonight Of My Blue Eyes
TTITLE22=Little Moses
TTITLE23=Lulu Wall
TTITLE24=The Grave On The Green Hillside
EXTD=YEAR: 2001
EXTT0=
EXTT1=
EXTT2=
EXTT3=
EXTT4=
EXTT5=
EXTT6=
EXTT7=
EXTT8=
EXTT9=
EXTT10=
EXTT11=
EXTT12=
EXTT13=
EXTT14=
EXTT15=
EXTT16=
EXTT17=
EXTT18=
EXTT19=
EXTT20=
EXTT21=
EXTT22=
EXTT23=
EXTT24=
PLAYORDER=
